<?xml version="1.0" encoding="UTF-8"?>
<svg width="139px" height="41px" viewBox="0 0 139 41" version="1.1" xmlns="http://www.w3.org/2000/svg"
  xmlns:xlink="http://www.w3.org/1999/xlink">
  <title>COZ-rgb-black-on-white Copy</title>
  <g id="Page-1" stroke="none" stroke-width="1" fill="none" fill-rule="evenodd">
    <g id="Connect-Portal-1440px-Desktop" transform="translate(-572.000000, -1530.000000)">
      <g id="Footer" transform="translate(-1.000000, 1503.000000)">
        <g id="COZ-rgb-black-on-white-Copy" transform="translate(573.000000, 27.000000)">
          <polyline id="Fill-1" fill="#FFFFFF"
            points="124.15399 10.5393672 124.15399 14.0742392 111.957217 26.3422878 124.15399 26.3422878 124.15399 30.1682865 106.851383 30.1682865 106.851383 26.8414215 119.210863 14.3670282 107.521535 14.3670282 107.521743 10.5393672 124.15399 10.5393672">
          </polyline>
          <polygon id="Stroke-2" stroke="#FFFFFF" stroke-width="0.546839982"
            points="124.15399 10.5393672 124.15399 14.0742392 111.957217 26.3422878 124.15399 26.3422878 124.15399 30.1682865 106.851383 30.1682865 106.851383 26.8414215 119.210863 14.3670282 107.521535 14.3670282 107.521743 10.5393672">
          </polygon>
          <path
            d="M88.6541999,26.0497065 C85.6691645,26.0497065 82.968814,23.3208876 82.968814,20.33606 C82.968814,17.3512324 85.6691645,14.6508819 88.6541999,14.6508819 C91.6388197,14.6508819 94.3391702,17.3512324 94.3391702,20.33606 C94.3391702,23.3208876 91.6388197,26.0497065 88.6541999,26.0497065 Z M88.6541999,10.415311 C83.3100203,10.415311 78.7049825,15.0203489 78.7049825,20.3645285 C78.7049825,25.7085003 83.3100203,30.3137459 88.6541999,30.3137459 C93.9979639,30.3137459 98.6032096,25.7085003 98.6032096,20.3645285 C98.6032096,15.0203489 93.9979639,10.415311 88.6541999,10.415311 L88.6541999,10.415311 Z"
            id="Fill-3" fill="#FFFFFF"></path>
          <g id="Group-8">
            <path
              d="M65.9810224,23.4630222 L70.6756217,23.4630222 C69.3824874,27.4425845 65.6718172,30.3137459 61.314476,30.3137459 C55.8890469,30.3137459 51.4755999,25.8506349 51.4755999,20.3645285 C51.4755999,14.8782143 55.8890469,10.415311 61.314476,10.415311 C65.6718172,10.415311 69.3546423,13.258004 70.6475688,17.2093056 L65.9529695,17.2093056 C65.1658262,15.4752213 63.2542814,14.3950811 61.314476,14.3950811 C58.2222162,14.3950811 55.7485747,17.0954316 55.7485747,20.3645285 C55.7485747,23.661886 58.2222162,26.3339758 61.314476,26.3339758 C63.2823343,26.3339758 65.1938791,25.1684302 65.9810224,23.4630222"
              id="Fill-4" fill="#FFFFFF"></path>
            <path
              d="M31.886578,30.2129633 L23.9154011,30.2129633 L31.8385764,22.2899958 L35.8239571,26.2755843 L31.886578,30.2129633 Z M12.0070528,34.1505502 L4.08387749,34.1985518 L12.0550544,26.2273748 L4.13187911,18.3046151 L8.06946597,14.3670282 L19.9300204,26.2273748 L12.0070528,34.1505502 Z M15.9924335,6.4438529 L19.9300204,10.3814398 L23.9154011,6.39605909 L27.9009895,10.3814398 L23.9154011,14.3670282 L27.8529879,18.3046151 L23.9154011,22.2419942 L12.0550544,10.3814398 L15.9924335,6.4438529 Z M0,40.0904901 L39.9169777,40.0904901 L39.9169777,0.173720123 L0,0.173720123 L0,40.0904901 Z"
              id="Fill-6" fill="#FFFFFF"></path>
            <polygon id="Stroke-7" stroke="#FFFFFF" stroke-width="2"
              points="1.09572513 39.0662478 137.106529 39.0662478 137.106529 1.15806489 1.09572513 1.15806489">
            </polygon>
          </g>
        </g>
      </g>
    </g>
  </g>
</svg>