<?xml version="1.0" encoding="UTF-8"?>
<svg width="162px" height="162px" viewBox="0 0 162 162" version="1.1" xmlns="http://www.w3.org/2000/svg" xmlns:xlink="http://www.w3.org/1999/xlink">
    <title>Group 5 Copy</title>
    <g id="Page-1" stroke="none" stroke-width="1" fill="none" fill-rule="evenodd">
        <g id="Connect-Portal-1440px-Desktop" transform="translate(-719.000000, -707.000000)">
            <g id="Options" transform="translate(570.000000, 558.000000)">
                <g id="Group-5-Copy" transform="translate(149.000000, 149.000000)">
                    <circle id="Oval" fill="#15191F" cx="81" cy="81" r="81"></circle>
                    <path d="M81,114.570312 C85.265625,114.570312 89.3554688,113.726562 93.2695312,112.039062 C97.1835938,110.351562 100.546875,108.101562 103.359375,105.289062 C106.171875,102.476562 108.398438,99.1132812 110.039062,95.1992188 C111.679688,91.2851562 112.5,87.171875 112.5,82.859375 L112.5,44.6796875 C112.5,44.0703125 112.289062,43.5429688 111.867188,43.0976562 C111.445312,42.6523438 110.90625,42.4296875 110.25,42.4296875 L94.5,42.4296875 C93.84375,42.4296875 93.3046875,42.6523438 92.8828125,43.0976562 C92.4609375,43.5429688 92.25,44.0703125 92.25,44.6796875 L92.25,81.8046875 C92.25,85.3671875 91.3007812,88.3085938 89.4023438,90.6289062 C87.5039062,92.9492188 84.9140625,94.109375 81.6328125,94.109375 C78.2578125,94.109375 75.4335938,92.9140625 73.1601562,90.5234375 C70.8867188,88.1328125 69.75,85.2265625 69.75,81.8046875 L69.75,44.6796875 C69.75,44.0703125 69.5390625,43.5429688 69.1171875,43.0976562 C68.6953125,42.6523438 68.15625,42.4296875 67.5,42.4296875 L51.75,42.4296875 C51.09375,42.4296875 50.5546875,42.6523438 50.1328125,43.0976562 C49.7109375,43.5429688 49.5,44.0703125 49.5,44.6796875 L49.5,82.859375 C49.5,85.71875 49.875,88.5195312 50.625,91.2617188 C51.375,94.0039062 52.4179688,96.5351562 53.7539062,98.8554688 C55.0898438,101.175781 56.7304688,103.308594 58.6757812,105.253906 C60.6210938,107.199219 62.7421875,108.851562 65.0390625,110.210938 C67.3359375,111.570312 69.84375,112.636719 72.5625,113.410156 C75.28125,114.183594 78.09375,114.570312 81,114.570312 Z M108,56 L96.75,56 L96.75,46.9296875 L108,46.9296875 L108,56 Z M65.25,56 L54,56 L54,46.9296875 L65.25,46.9296875 L65.25,56 Z M81,110.070312 C76.078125,110.070312 71.5429688,108.851562 67.3945312,106.414062 C63.2460938,103.976562 59.9765625,100.671875 57.5859375,96.5 C55.1953125,92.328125 54,87.78125 54,82.859375 L54,60.5 L65.25,60.5 L65.25,81.8046875 C65.25,86.4921875 66.8320312,90.4648438 69.9960938,93.7226562 C73.1601562,96.9804688 77.0390625,98.609375 81.6328125,98.609375 C84.6328125,98.609375 87.2929688,97.859375 89.6132812,96.359375 C91.9335938,94.859375 93.703125,92.84375 94.921875,90.3125 C96.140625,87.78125 96.75,84.9453125 96.75,81.8046875 L96.75,60.5 L108,60.5 L108,82.859375 C108,86.5625 107.296875,90.0898438 105.890625,93.4414062 C104.484375,96.7929688 102.574219,99.6875 100.160156,102.125 C97.7460938,104.5625 94.8632812,106.496094 91.5117188,107.925781 C88.1601562,109.355469 84.65625,110.070312 81,110.070312 Z" id="" stroke="#20242B" fill="#20E8AA" fill-rule="nonzero" transform="translate(81.000000, 78.500000) scale(1, -1) translate(-81.000000, -78.500000) "></path>
                </g>
            </g>
        </g>
    </g>
</svg>