<?xml version="1.0" encoding="UTF-8"?>
<svg width="228px" height="37px" viewBox="0 0 228 37" version="1.1" xmlns="http://www.w3.org/2000/svg" xmlns:xlink="http://www.w3.org/1999/xlink">
    <title>WalletConnect</title>
    <g id="Page-1" stroke="none" stroke-width="1" fill="none" fill-rule="evenodd">
        <g id="Connect-Portal-1440px-Desktop" transform="translate(-1758.000000, -26.000000)" fill-rule="nonzero">
            <g id="Header" transform="translate(-1.000000, -1.000000)">
                <g id="Group" transform="translate(1759.000000, 27.000000)">
                    <g transform="translate(71.607629, 14.764085)" fill="#FFFFFF" id="Shape">
                        <path d="M10.7543732,5.50176405 L7.62141071,16.7217967 L4.36057224,16.7217967 L0,0.292917993 L3.58052852,0.292917993 L6.1764117,12.1879356 L6.26592491,12.1879356 L9.34773696,0.292917993 L12.2633102,0.292917993 L15.3451222,12.1879356 L15.4346355,12.1879356 L18.0433062,0.292917993 L21.6238348,0.292917993 L17.2504749,16.7217967 L13.9896364,16.7217967 L10.856674,5.50176405 L10.7543732,5.50176405 Z M26.3808227,14.5058085 C27.8258217,14.5058085 29.0278562,13.5633766 29.0278562,12.2388779 L29.0278562,11.3473883 L26.4447607,11.5002151 C25.2043633,11.5893641 24.4882576,12.1497289 24.4882576,13.0157474 C24.4882576,13.9454436 25.2427261,14.5058085 26.3808227,14.5058085 Z M25.2810889,16.9128302 C22.9537454,16.9128302 21.1762687,15.4100336 21.1762687,13.2195164 C21.1762687,11.0035281 22.8898073,9.71723604 25.9460442,9.52620256 L29.0278562,9.34790466 L29.0278562,8.54556407 C29.0278562,7.41209879 28.2222373,6.74984941 26.9690523,6.74984941 C25.728655,6.74984941 24.9358236,7.36115653 24.7695848,8.26538164 L21.713348,8.26538164 C21.841224,5.89656656 23.8616651,4.26641425 27.109716,4.26641425 C30.255466,4.26641425 32.3014823,5.883831 32.3014823,8.34179503 L32.3014823,16.7345323 L29.0790066,16.7345323 L29.0790066,14.8624043 L29.0150686,14.8624043 C28.3245381,16.1486963 26.8156011,16.9128302 25.2810889,16.9128302 Z M34.5393126,0.292917993 L37.8768767,0.292917993 L37.8768767,16.7217967 L34.5393126,16.7217967 L34.5393126,0.292917993 Z M40.2042203,0.292917993 L43.5417844,0.292917993 L43.5417844,16.7217967 L40.2042203,16.7217967 L40.2042203,0.292917993 Z M51.2910711,6.71164272 C49.8332845,6.71164272 48.7719135,7.81963686 48.6568251,9.33516909 L53.8613791,9.33516909 C53.7974411,7.78143017 52.7744329,6.71164272 51.2910711,6.71164272 Z M53.9125295,12.9902762 L56.9815539,12.9902762 C56.6107135,15.3845624 54.4240335,16.9892436 51.3933719,16.9892436 C47.6210294,16.9892436 45.3576238,14.5822218 45.3576238,10.685139 C45.3576238,6.78805611 47.6466046,4.26641425 51.2654959,4.26641425 C54.8332368,4.26641425 57.0838547,6.67343602 57.0838547,10.3794854 L57.0838547,11.3983306 L48.6440375,11.3983306 L48.6440375,11.6020996 C48.6440375,13.346872 49.7565589,14.5440151 51.4573099,14.5440151 C52.6593445,14.518544 53.5928394,13.9199725 53.9125295,12.9902762 Z M59.6797379,1.7065657 L63.017302,1.7065657 L63.017302,4.52112555 L65.2807075,4.52112555 L65.2807075,7.03003184 L63.017302,7.03003184 L63.017302,12.8629206 C63.017302,13.7926168 63.4776557,14.2383616 64.462301,14.2383616 C64.7564159,14.2383616 65.0633183,14.2128905 65.2679199,14.1874193 L65.2679199,16.6326478 C64.9226547,16.7090612 64.3472126,16.772739 63.6822573,16.772739 C60.8050469,16.772739 59.6797379,15.8175716 59.6797379,13.436021 L59.6797379,7.03003184 L57.9534117,7.03003184 L57.9534117,4.52112555 L59.6797379,4.52112555 L59.6797379,1.7065657 Z M74.6795949,17.0019792 C69.8842442,17.0019792 66.8791578,13.8053524 66.8791578,8.49462181 C66.8791578,3.1966268 69.9098194,0 74.6795949,0 C78.6437515,0 81.6616255,2.50890629 81.9301652,6.17674899 L78.5670259,6.17674899 C78.2473358,4.16452973 76.6872484,2.84003098 74.6795949,2.84003098 C72.0709241,2.84003098 70.3957483,5.01781258 70.3957483,8.46915068 C70.3957483,11.971431 72.0581365,14.1364771 74.6923825,14.1364771 C76.7383988,14.1364771 78.208973,12.939334 78.5798135,10.9907925 L81.9429528,10.9907925 C81.5465371,14.6841064 78.7332647,17.0019792 74.6795949,17.0019792 Z M89.3981247,16.976508 C85.6897201,16.976508 83.3240138,14.607693 83.3240138,10.6087256 C83.3240138,6.66070046 85.7280829,4.25367869 89.3981247,4.25367869 C93.0681664,4.25367869 95.4722355,6.64796489 95.4722355,10.6087256 C95.4722355,14.6204285 93.1065292,16.976508 89.3981247,16.976508 Z M89.3981247,14.4421306 C91.0349377,14.4421306 92.0707334,13.0666896 92.0707334,10.6214611 C92.0707334,8.20170381 91.0221501,6.80079167 89.3981247,6.80079167 C87.7740992,6.80079167 86.7127283,8.20170381 86.7127283,10.6214611 C86.7127283,13.0666896 87.7613116,14.4421306 89.3981247,14.4421306 Z M97.1857742,16.7217967 L97.1857742,4.52112555 L100.40825,4.52112555 L100.40825,6.69890715 L100.472188,6.69890715 C101.124356,5.18337492 102.415903,4.29188538 104.308468,4.29188538 C107.032228,4.29188538 108.553952,5.99845108 108.553952,8.85121762 L108.553952,16.7217967 L105.216388,16.7217967 L105.216388,9.55167369 C105.216388,7.95972808 104.46192,7.0427674 102.96577,7.0427674 C101.469621,7.0427674 100.523338,8.13802599 100.523338,9.71723604 L100.523338,16.7217967 L97.1857742,16.7217967 Z M110.663907,16.7217967 L110.663907,4.52112555 L113.886382,4.52112555 L113.886382,6.69890715 L113.95032,6.69890715 C114.602488,5.18337492 115.894036,4.29188538 117.773813,4.29188538 C120.497572,4.29188538 122.019297,5.99845108 122.019297,8.85121762 L122.019297,16.7217967 L118.681733,16.7217967 L118.681733,9.55167369 C118.681733,7.95972808 117.927264,7.0427674 116.431115,7.0427674 C114.934966,7.0427674 113.988683,8.13802599 113.988683,9.71723604 L113.988683,16.7217967 L110.663907,16.7217967 Z M129.653495,6.71164272 C128.195709,6.71164272 127.134338,7.81963686 127.019249,9.33516909 L132.223803,9.33516909 C132.159865,7.78143017 131.136857,6.71164272 129.653495,6.71164272 Z M132.262166,12.9902762 L135.331191,12.9902762 C134.96035,15.3845624 132.77367,16.9892436 129.743009,16.9892436 C125.970666,16.9892436 123.70726,14.5822218 123.70726,10.685139 C123.70726,6.78805611 125.996241,4.26641425 129.615133,4.26641425 C133.182873,4.26641425 135.433491,6.67343602 135.433491,10.3794854 L135.433491,11.3983306 L126.993674,11.3983306 L126.993674,11.6020996 C126.993674,13.346872 128.106196,14.5440151 129.806947,14.5440151 C131.021769,14.518544 131.955264,13.9199725 132.262166,12.9902762 Z M148.272244,9.05498666 L145.177644,9.05498666 C144.98583,7.7686946 144.129061,6.86446949 142.760787,6.86446949 C141.111187,6.86446949 140.088178,8.25264607 140.088178,10.6087256 C140.088178,13.0157474 141.111187,14.3784528 142.773575,14.3784528 C144.116273,14.3784528 144.973042,13.5761122 145.190432,12.2516135 L148.297819,12.2516135 C148.13158,15.1298511 145.970475,16.9892436 142.748,16.9892436 C139.052383,16.9892436 136.712252,14.5949574 136.712252,10.6214611 C136.712252,6.71164272 139.052383,4.26635488 142.722424,4.26635488 C146.021626,4.25367869 148.13158,6.29136907 148.272244,9.05498666 Z M150.791401,1.7065657 L154.128965,1.7065657 L154.128965,4.52112555 L156.392371,4.52112555 L156.392371,7.03003184 L154.128965,7.03003184 L154.128965,12.8629206 C154.128965,13.7926168 154.589319,14.2383616 155.573964,14.2383616 C155.868079,14.2383616 156.174982,14.2128905 156.379583,14.1874193 L156.379583,16.6326478 C156.034318,16.7090612 155.471663,16.772739 154.793921,16.772739 C151.91671,16.772739 150.791401,15.8175716 150.791401,13.436021 L150.791401,7.03003184 L149.065075,7.03003184 L149.065075,4.52112555 L150.791401,4.52112555 L150.791401,1.7065657 Z"></path>
                    </g>
                    <g fill="#3A99FB" id="Shape">
                        <path d="M12.4199583,7.23061699 C22.3047746,-2.41020566 38.3276397,-2.41020566 48.2252435,7.23061699 L49.4144905,8.38955339 C49.913207,8.87350486 49.913207,9.65037432 49.4144905,10.1343258 L45.3480331,14.107822 C45.1050687,14.3497978 44.6958654,14.3497978 44.452901,14.107822 L42.816088,12.5158764 C35.9235705,5.79149815 24.7344189,5.79149815 17.8419015,12.5158764 L16.09,14.2224421 C15.8470356,14.4644179 15.4378324,14.4644179 15.1948679,14.2224421 L11.1156229,10.2489459 C10.6169065,9.76499441 10.6169065,8.98812495 11.1156229,8.50417348 L12.4199583,7.23061699 Z M56.6394856,15.4323208 L60.2583769,18.9600723 C60.7570934,19.4440238 60.7570934,20.2208932 60.2583769,20.7048447 L43.9286093,36.6370364 C43.4298928,37.1209879 42.6370615,37.1209879 42.1383451,36.6370364 L30.5399902,25.3278547 C30.4121141,25.2132347 30.2203001,25.2132347 30.0924241,25.3278547 L18.5068568,36.6370364 C18.0081403,37.1209879 17.215309,37.1209879 16.7165925,36.6370364 L0.374037355,20.7175802 C-0.124679118,20.2336288 -0.124679118,19.4567593 0.374037355,18.9728078 L3.99292868,15.4450564 C4.49164516,14.9611049 5.28447647,14.9611049 5.78319294,15.4450564 L17.3815478,26.754238 C17.5094239,26.8688581 17.7012379,26.8688581 17.8291139,26.754238 L29.4146812,15.4450564 C29.9133977,14.9611049 30.706229,14.9611049 31.2049455,15.4450564 L42.8033003,26.754238 C42.9311764,26.8688581 43.1229904,26.8688581 43.2508664,26.754238 L54.8492213,15.4450564 C55.3351502,14.9483693 56.1407691,14.9483693 56.6394856,15.4323208 Z"></path>
                    </g>
                </g>
            </g>
        </g>
    </g>
</svg>