<?xml version="1.0" encoding="UTF-8"?>
<svg width="38px" height="38px" viewBox="0 0 38 38" version="1.1" xmlns="http://www.w3.org/2000/svg" xmlns:xlink="http://www.w3.org/1999/xlink">
    <title>Group 7</title>
    <g id="Page-1" stroke="none" stroke-width="1" fill="none" fill-rule="evenodd">
        <g id="Connect-Portal-1440px-Desktop" transform="translate(-1613.000000, -1393.000000)">
            <g id="neon-wallet-banner" transform="translate(572.000000, 1300.000000)">
                <g id="Group-2" transform="translate(1022.000000, 83.000000)">
                    <g id="Group-7" transform="translate(19.859606, 10.756757)">
                        <path d="M33.5054103,36.0540541 L2.86420516,36.0540541 C1.28231554,36.0540541 0,34.782859 0,33.2146879 L0,2.83921016 C0,1.27119501 1.28231554,0 2.86420516,0 L33.5054103,0 C35.0872999,0 36.3694581,1.27119501 36.3694581,2.83921016 L36.3694581,33.2146879 C36.3694581,34.782859 35.0872999,36.0540541 33.5054103,36.0540541 Z" id="Stroke-1" stroke="#4CFFB3" stroke-width="0.7821"></path>
                        <path d="M13.3126565,24.4039526 C13.401763,24.4039526 13.4845047,24.3880408 13.5608816,24.356217 C13.6372586,24.3243933 13.700906,24.2798401 13.751824,24.2225574 C13.802742,24.1652746 13.8441128,24.0984448 13.8759365,24.0220679 C13.9077603,23.9456909 13.9236721,23.869314 13.9236721,23.792937 C13.9236721,23.6274536 13.8663894,23.4842468 13.751824,23.3633166 C13.6372586,23.2423865 13.4908694,23.1819214 13.3126565,23.1819214 L12.7780178,23.1819214 C11.9887893,23.1819214 11.3045791,22.8636841 10.7253872,22.2272095 C10.1461953,21.5907349 9.85659938,20.8396948 9.85659938,19.9740893 C9.85659938,19.2103198 10.092095,18.5229272 10.5630862,17.9119116 C11.0340774,17.300896 11.6069046,16.9381055 12.2815676,16.82354 L12.8353006,16.7280688 L12.7971121,16.1552417 L12.7780178,16.1552417 C12.7780178,14.6404321 13.2362796,13.3929419 14.152803,12.412771 C15.0693264,11.4326001 16.2786282,10.9425146 17.7807083,10.9425146 C20.0592874,10.9425146 21.5295437,12.0181567 22.1914773,14.1694409 L22.325137,14.5895141 L22.7643045,14.6086084 C23.5153445,14.6213379 24.2154666,14.8122803 24.8646707,15.1814355 C25.5138748,15.5505908 26.035784,16.0565881 26.4303982,16.6994275 C26.8250125,17.3422668 27.0223196,18.0328418 27.0223196,18.7711523 C27.0223196,19.1275781 26.9841311,19.4808215 26.9077542,19.8308826 C26.8313772,20.1809436 26.7263589,20.5182751 26.5926992,20.8428772 C26.4590396,21.1674792 26.2871914,21.472987 26.0771548,21.7594006 C25.8671182,22.0458142 25.6379873,22.2940393 25.3897622,22.5040759 C25.1415371,22.7141125 24.8583059,22.8795959 24.5400686,23.0005261 C24.2218313,23.1214563 23.8908645,23.1819214 23.5471682,23.1819214 L23.3753201,23.1819214 C23.2989431,23.1819214 23.2225662,23.1978332 23.1461892,23.229657 C23.0698123,23.2614807 23.0029824,23.3060339 22.9456997,23.3633166 C22.888417,23.4205994 22.8438638,23.4842468 22.8120401,23.554259 C22.7802163,23.6242712 22.7643045,23.7038306 22.7643045,23.792937 C22.7643045,23.9584204 22.8247695,24.1016272 22.9456997,24.2225574 C23.0666299,24.3434875 23.2098367,24.4039526 23.3753201,24.4039526 C24.1136306,24.3784936 24.7946585,24.1970984 25.4184036,23.8597668 C26.0421487,23.5224353 26.5513284,23.0832678 26.9459426,22.5422644 C27.3405569,22.001261 27.6492471,21.4061572 27.8720132,20.7569531 C28.0947793,20.107749 28.2061624,19.4458154 28.2061624,18.7711523 C28.2061624,17.3836377 27.725624,16.1807007 26.7645474,15.1623413 C25.8034707,14.1439819 24.6228103,13.5584253 23.2225662,13.4056714 C22.7897634,12.2472876 22.111918,11.3434936 21.1890298,10.6942895 C20.2661416,10.0450854 19.1300344,9.72048339 17.7807083,9.72048339 C16.0367678,9.72048339 14.5951529,10.2901282 13.4558633,11.4294177 C12.3165737,12.5687073 11.6896463,14.0039575 11.5750808,15.7351684 C10.7222049,16.0152173 10.0220828,16.5466736 9.47471462,17.3295373 C8.92734645,18.1124011 8.65366237,18.9939184 8.65366237,19.9740893 C8.65366237,21.1706616 9.06100612,22.2081152 9.87569362,23.0864502 C10.6903811,23.9647851 11.6578225,24.4039526 12.7780178,24.4039526 L13.3126565,24.4039526 Z M18.4203653,26.7143555 C18.5412954,26.7143555 18.6463137,26.6698022 18.7354202,26.5806958 L18.8881741,26.4279419 L18.8881741,26.4088476 L18.8881741,26.4088476 L21.1412942,23.9456909 C21.3322366,23.7547485 21.3322366,23.5638061 21.1412942,23.3728638 L20.9885403,23.2392041 C20.9121633,23.1500976 20.8135098,23.1055444 20.6925796,23.1055444 C20.5716494,23.1055444 20.4666311,23.1500976 20.3775247,23.2392041 L19.040928,24.7285547 L19.040928,18.5802099 C19.040928,18.5420215 19.0345633,18.5006506 19.0218338,18.4560974 C19.0091043,18.4115442 18.9963748,18.3733557 18.9836453,18.341532 C18.9709158,18.3097082 18.9518216,18.2747021 18.9263626,18.2365137 C18.9009036,18.1983252 18.8754446,18.1665015 18.8499856,18.1410425 C18.8245266,18.1155835 18.7958853,18.0933069 18.7640615,18.0742126 C18.7322378,18.0551184 18.6972317,18.0360242 18.6590432,18.0169299 C18.6208548,17.9978357 18.5826663,17.9851062 18.5444778,17.9787414 C18.5062893,17.9723767 18.4681008,17.9691943 18.4299124,17.9691943 C18.2516995,17.9691943 18.1053103,18.0296594 17.9907449,18.1505896 C17.8761795,18.2715198 17.8188967,18.4147266 17.8188967,18.5802099 L17.8188967,24.7285547 L16.5204885,23.2773926 C16.4313821,23.1882861 16.3263638,23.1405505 16.2054336,23.1341858 C16.0845034,23.127821 15.9794851,23.1628271 15.8903787,23.2392041 L15.7376248,23.3346753 C15.6485183,23.4237817 15.6039651,23.5319824 15.6039651,23.6592773 C15.6039651,23.7865723 15.6485183,23.8947729 15.7376248,23.9838794 L17.9525564,26.4088476 L17.9525564,26.4279419 L17.9525564,26.4279419 L18.1053103,26.5806958 C18.1944168,26.6698022 18.2994351,26.7143555 18.4203653,26.7143555 Z" id="" fill="#20E8AA" fill-rule="nonzero"></path>
                    </g>
                </g>
            </g>
        </g>
    </g>
</svg>