<?xml version="1.0" encoding="UTF-8"?>
<svg width="253px" height="48px" viewBox="0 0 253 48" version="1.1" xmlns="http://www.w3.org/2000/svg" xmlns:xlink="http://www.w3.org/1999/xlink">
    <title>neon logo</title>
    <g id="Page-1" stroke="none" stroke-width="1" fill="none" fill-rule="evenodd">
        <g id="Connect-Portal-1440px-Desktop" transform="translate(-572.000000, -20.000000)">
            <g id="Header" transform="translate(-1.000000, -1.000000)">
                <g id="neon-logo" transform="translate(574.000000, 22.000000)">
                    <path d="M42.5900038,46.2306041 L3.64080033,46.2306041 C1.63000015,46.2306041 0,44.600604 0,42.5898038 L0,3.64060033 C0,1.63000015 1.63000015,0 3.64080033,0 L42.5900038,0 C44.600804,0 46.2306041,1.63000015 46.2306041,3.64060033 L46.2306041,42.5898038 C46.2306041,44.600604 44.600804,46.2306041 42.5900038,46.2306041 Z" id="Stroke-1" stroke="#4CFFB3"></path>
                    <path d="M21.3154019,30.6948627 L13.6898012,23.0690621 L17.4796016,19.2794617 L21.3154019,23.1152621 L25.1514022,19.2794617 L28.9410026,23.0690621 L21.3154019,30.6948627 Z M40.4028036,11.607461 L36.6130033,7.8178607 L32.7772029,11.653661 L28.9410026,7.8178607 L25.1052022,11.653661 L21.3154019,7.8640607 L6.06400054,23.1152621 L21.3154019,38.3664634 L36.5668033,23.1152621 L32.7308029,19.2794617 L40.4028036,11.607461 Z" id="Stroke-3" stroke="#4CFFB3"></path>
                    <path d="M75.4997868,22.150822 L75.4997868,30.6830227 L72.7505865,30.6830227 L72.7505865,22.308822 C72.7505865,19.8438218 71.2337864,18.3270216 69.1795862,18.3270216 C67.125586,18.3270216 64.6607858,19.4964217 64.6607858,22.688022 L64.6607858,30.6830227 L61.9115855,30.6830227 L61.9115855,15.9254214 L64.6607858,15.9254214 L64.6607858,18.1690216 C65.5455859,16.3678215 67.9471861,15.6094214 69.5587862,15.6094214 C73.2245865,15.6094214 75.5313868,18.0110216 75.4997868,22.150822" id="Fill-5" fill="#FFFFFF"></path>
                    <path d="M95.0284885,22.119182 C94.6808885,19.5911818 92.8796883,18.2005816 90.4462881,18.2005816 C87.9496879,18.2005816 86.1802877,19.4647817 85.7378877,22.119182 L95.0284885,22.119182 Z M97.7146887,24.4893822 L85.7062877,24.4893822 C86.1168877,27.1121824 88.0130879,28.4077825 90.5410881,28.4077825 C92.3422883,28.4077825 94.0170884,27.6493825 94.8388885,26.1641823 L97.2406887,27.1121824 C95.9448886,29.6717827 93.2904883,30.9989828 90.4462881,30.9989828 C86.2432877,30.9989828 82.8620874,27.9337825 82.8620874,23.2567821 C82.8620874,18.5799817 86.2432877,15.6093814 90.4462881,15.6093814 C94.6492885,15.6093814 97.7776887,18.5799817 97.7776887,23.2567821 C97.7776887,23.6675821 97.7460887,24.0783822 97.7146887,24.4893822 L97.7146887,24.4893822 Z" id="Fill-7" fill="#FFFFFF"></path>
                    <path d="M116.99041,23.2567821 C116.99041,20.2231818 114.71521,18.2005816 111.99741,18.2005816 C109.31141,18.2005816 107.06781,20.2231818 107.06781,23.2567821 C107.06781,26.3221824 109.31141,28.4077825 111.99741,28.4077825 C114.71521,28.4077825 116.99041,26.3221824 116.99041,23.2567821 M104.286809,23.2567821 C104.286809,18.5799817 107.79461,15.6093814 111.99741,15.6093814 C116.20041,15.6093814 119.739811,18.5799817 119.739811,23.2567821 C119.739811,27.9337825 116.20041,30.9989828 111.99741,30.9989828 C107.79461,30.9989828 104.286809,27.9337825 104.286809,23.2567821" id="Fill-9" fill="#FFFFFF"></path>
                    <path d="M140.942953,22.150822 L140.942953,30.6830227 L138.193752,30.6830227 L138.193752,22.308822 C138.193752,19.8438218 136.676952,18.3270216 134.622752,18.3270216 C132.568752,18.3270216 130.103952,19.4964217 130.103952,22.688022 L130.103952,30.6830227 L127.354751,30.6830227 L127.354751,15.9254214 L130.103952,15.9254214 L130.103952,18.1690216 C130.988752,16.3678215 133.390352,15.6094214 135.001952,15.6094214 C138.667752,15.6094214 140.974553,18.0110216 140.942953,22.150822" id="Fill-11" fill="#FFFFFF"></path>
                    <polygon id="Fill-13" fill="#FFFFFF" points="170.900375 15.9254214 165.401775 30.6830227 163.094975 30.6830227 159.018374 19.7174218 155.099774 30.6830227 152.824574 30.6830227 147.199573 15.9254214 150.170173 15.9254214 153.930574 26.4170224 157.691174 15.9254214 160.377174 15.9254214 164.169375 26.4170224 167.929775 15.9254214"></polygon>
                    <path d="M188.975177,23.2567821 C188.975177,20.0651818 186.383777,18.2005816 183.950576,18.2005816 C181.264376,18.2005816 179.115576,20.2863818 179.115576,23.2567821 C179.115576,26.1957823 181.264376,28.4077825 183.950576,28.4077825 C186.604977,28.4077825 188.975177,26.4169824 188.975177,23.2567821 L188.975177,23.2567821 Z M191.724377,15.9253814 L191.724377,30.6829827 L188.975177,30.6829827 L188.975177,28.3445825 C187.995577,30.0509827 185.846577,30.9989828 183.729376,30.9989828 C179.684376,30.9989828 176.334776,27.9337825 176.334776,23.2883821 C176.334776,18.6113817 179.652976,15.6093814 183.697776,15.6093814 C185.909777,15.6093814 187.995577,16.4941815 188.975177,18.2321816 L188.975177,15.9253814 L191.724377,15.9253814 Z" id="Fill-15" fill="#FFFFFF"></path>
                    <polygon id="Fill-17" fill="#FFFFFF" points="200.318658 30.6831627 203.067858 30.6831627 203.067858 7.8671607 200.318658 7.8671607"></polygon>
                    <polygon id="Fill-19" fill="#FFFFFF" points="211.631259 30.6831627 214.380459 30.6831627 214.380459 7.8671607 211.631259 7.8671607"></polygon>
                    <path d="M234.098821,22.119182 C233.751221,19.5911818 231.950021,18.2005816 229.516621,18.2005816 C227.02002,18.2005816 225.25062,19.4647817 224.80822,22.119182 L234.098821,22.119182 Z M236.785021,24.4893822 L224.77662,24.4893822 C225.18722,27.1121824 227.08342,28.4077825 229.611421,28.4077825 C231.412621,28.4077825 233.087421,27.6493825 233.909221,26.1641823 L236.311021,27.1121824 C235.015221,29.6717827 232.360821,30.9989828 229.516621,30.9989828 C225.31362,30.9989828 221.93242,27.9337825 221.93242,23.2567821 C221.93242,18.5799817 225.31362,15.6093814 229.516621,15.6093814 C233.719621,15.6093814 236.848021,18.5799817 236.848021,23.2567821 C236.848021,23.6675821 236.816421,24.0783822 236.785021,24.4893822 L236.785021,24.4893822 Z" id="Fill-20" fill="#FFFFFF"></path>
                    <polygon id="Fill-21" fill="#FFFFFF" points="251.226162 18.2954416 248.034562 18.2954416 248.034562 30.6830427 245.285162 30.6830427 245.285162 18.2954416 242.630562 18.2954416 242.630562 15.9254414 245.285162 15.9254414 245.285162 10.3320409 248.034562 10.3320409 248.034562 15.9254414 251.226162 15.9254414"></polygon>
                </g>
            </g>
        </g>
    </g>
</svg>