<?xml version="1.0" encoding="UTF-8"?>
<svg width="40px" height="25px" viewBox="0 0 40 25" version="1.1" xmlns="http://www.w3.org/2000/svg" xmlns:xlink="http://www.w3.org/1999/xlink">
    <title>WalletConnect</title>
    <g id="Page-1" stroke="none" stroke-width="1" fill="none" fill-rule="evenodd">
        <g id="Connect-portal-320px-MOBILE" transform="translate(-265.000000, -24.000000)" fill="#3A99FB" fill-rule="nonzero">
            <g id="Header-" transform="translate(-1.000000, 1.000000)">
                <g id="WalletConnect" transform="translate(266.000000, 23.000000)">
                    <path d="M8.19360962,4.88555202 C14.7147527,-1.62851734 25.2852473,-1.62851734 31.8148265,4.88555202 L32.5993884,5.66861716 C32.9283982,5.99561139 32.9283982,6.52052319 32.5993884,6.84751743 L29.916693,9.53231219 C29.7564062,9.69580931 29.4864494,9.69580931 29.3261626,9.53231219 L28.2463355,8.45667326 C23.6992513,3.91317443 16.317621,3.91317443 11.7705367,8.45667326 L10.6147844,9.6097582 C10.4544975,9.77325531 10.1845408,9.77325531 10.0242539,9.6097582 L7.33312243,6.92496343 C7.00411262,6.59796919 7.00411262,6.0730574 7.33312243,5.74606316 L8.19360962,4.88555202 Z M37.3658125,10.4272438 L39.7532426,12.8108597 C40.0822525,13.1378539 40.0822525,13.6627657 39.7532426,13.9897599 L28.9802805,24.7547543 C28.6512707,25.0817486 28.1282295,25.0817486 27.7992197,24.7547543 L20.1476326,17.1134154 C20.0632711,17.0359694 19.9367289,17.0359694 19.8523674,17.1134154 L12.2092165,24.7547543 C11.8802067,25.0817486 11.3571655,25.0817486 11.0281556,24.7547543 L0.246757355,13.998365 C-0.0822524518,13.6713708 -0.0822524518,13.146459 0.246757355,12.8194648 L2.63418749,10.4358489 C2.9631973,10.1088547 3.48623853,10.1088547 3.81524834,10.4358489 L11.4668354,18.0771878 C11.5511969,18.1546339 11.6777391,18.1546339 11.7621006,18.0771878 L19.4052515,10.4358489 C19.7342613,10.1088547 20.2573025,10.1088547 20.5863123,10.4358489 L28.2378994,18.0771878 C28.3222609,18.1546339 28.4488031,18.1546339 28.5331646,18.0771878 L36.1847517,10.4358489 C36.5053253,10.1002495 37.0368027,10.1002495 37.3658125,10.4272438 Z" id="Shape"></path>
                </g>
            </g>
        </g>
    </g>
</svg>